<svg xmlns="http://www.w3.org/2000/svg" width="180" height="60" viewBox="0,0,180,60"><rect width="100%" height="100%" fill="#eef3fc"/><path fill="#36d75f" d="M21.40 44.88L21.54 45.01L21.51 44.98Q17.17 44.26 15.34 42.81L15.49 42.96L15.46 42.93Q13.57 41.42 13.15 38.41L13.15 38.41L13.18 38.45Q13.08 38.00 12.74 33.24L12.90 33.40L12.89 33.40Q12.87 32.15 12.79 30.90L12.86 30.96L12.85 30.96Q12.71 25.95 14.92 24.20L14.74 24.01L14.84 24.11Q17.53 22.05 25.30 21.36L25.27 21.34L25.16 21.22Q26.51 21.09 28.15 21.13L28.16 21.13L28.15 21.13Q28.22 21.20 31.19 21.20L31.11 21.12L31.27 21.28Q32.01 21.19 33.73 21.34L33.82 21.43L33.75 21.36Q33.28 22.34 32.25 25.42L32.16 25.33L32.15 25.32Q30.14 24.18 27.13 24.18L27.06 24.11L27.11 24.16Q26.37 24.19 25.57 24.26L25.55 24.24L25.65 24.34Q20.39 24.64 17.88 26.62L17.99 26.73L17.86 26.60Q16.02 28.38 15.87 31.73L15.72 31.58L15.75 31.61Q15.68 32.19 15.72 33.44L15.71 33.43L15.73 33.45Q15.92 38.36 18.32 40.46L18.27 40.41L18.31 40.45Q20.41 42.33 25.40 42.63L25.52 42.75L25.38 42.61Q28.50 42.76 31.51 40.97L31.48 40.94L31.63 41.09Q32.19 43.78 32.80 45.15L32.76 45.12L32.88 45.24Q30.79 45.50 29.15 45.47L29.02 45.34L29.12 45.44Q24.54 45.27 21.42 44.89ZM36.51 48.60L36.65 48.74L36.64 48.73Q34.76 45.63 34.07 43.04L34.06 43.03L34.09 43.06Q33.74 43.39 32.75 43.77L32.77 43.80L32.70 43.73Q32.30 42.87 32.11 42.03L32.06 41.98L31.72 40.31L31.72 40.31Q28.43 42.35 25.31 42.23L25.34 42.26L25.43 42.36Q21.19 42.19 18.87 40.44L18.71 40.28L18.73 40.30Q17.65 38.53 17.72 35.60L17.80 35.68L17.64 35.52Q17.97 31.20 20.45 29.07L20.37 29.00L20.34 28.97Q22.53 27.12 27.21 26.51L27.23 26.53L27.23 26.53Q28.04 26.43 28.76 26.43L28.67 26.33L28.77 26.43Q31.42 26.30 33.51 27.82L33.60 27.91L33.47 27.78Q34.07 25.75 35.29 22.52L35.31 22.54L35.21 22.44Q35.09 22.59 34.54 22.53L34.38 22.37L34.46 22.45Q33.85 22.34 33.59 22.34L33.63 22.39L33.67 22.42Q33.76 21.79 34.21 20.80L34.19 20.77L34.30 20.88Q34.04 20.85 31.55 20.78L31.48 20.71L31.53 20.76Q29.16 20.81 28.51 20.84L28.42 20.75L28.41 20.74Q17.87 21.05 14.40 23.64L14.53 23.76L14.47 23.71Q12.37 25.45 12.37 29.37L12.33 29.33L12.41 29.41Q12.49 30.59 12.60 33.30L12.58 33.27L12.45 33.15Q12.66 36.78 12.89 38.49L12.96 38.57L12.94 38.55Q13.32 41.67 14.92 43.19L14.79 43.06L14.82 43.09Q15.36 43.82 16.62 44.96L16.55 44.89L16.61 44.96Q19.89 46.75 25.14 47.51L25.07 47.44L25.06 47.43Q31.51 48.40 36.50 48.59Z"/><path d="M17 28 C80 53,83 29,168 5" stroke="#5b7bdb" fill="none"/><path d="M14 10 C86 44,77 3,165 5" stroke="#56badb" fill="none"/><path d="M19 29 C92 48,81 48,164 14" stroke="#91ec91" fill="none"/><path fill="#7eb2e6" d="M98.78 34.16L98.85 34.24L98.73 34.11Q97.03 34.28 95.81 35.62L95.67 35.47L95.76 35.56Q94.46 36.81 94.31 38.72L94.37 38.78L94.38 38.79Q94.07 40.80 95.29 41.81L95.30 41.82L95.38 41.90Q96.59 42.90 98.72 42.82L98.71 42.82L98.70 42.81Q101.02 42.65 101.97 41.69L101.96 41.69L102.03 41.75Q103.11 40.36 103.00 38.53L102.87 38.41L103.00 38.54Q102.81 36.59 101.72 35.40L101.73 35.40L101.80 35.47Q100.54 34.10 98.71 34.10ZM98.79 24.77L98.85 24.83L98.68 24.66Q97.33 24.61 96.00 25.10L95.97 25.08L96.00 25.11Q94.70 25.90 94.93 27.77L95.04 27.87L94.88 27.71Q95.38 31.45 98.73 31.45L98.87 31.59L98.77 31.49Q100.32 31.67 101.31 30.52L101.28 30.50L101.32 30.54Q102.25 29.34 102.29 27.78L102.39 27.88L102.46 27.95Q102.46 26.12 101.74 25.51L101.67 25.44L101.72 25.49Q100.01 24.62 98.72 24.70ZM98.59 45.40L98.42 45.22L95.37 45.22L95.53 45.38Q93.98 45.36 92.65 44.48L92.68 44.51L92.55 44.38Q91.13 43.19 91.29 40.34L91.38 40.43L91.30 40.35Q91.92 33.66 95.53 32.67L95.41 32.55L95.44 32.58Q93.11 31.62 91.78 26.25L91.75 26.22L91.88 26.35Q91.50 24.90 91.57 24.10L91.54 24.07L91.64 24.17Q91.90 21.99 95.59 21.95L95.53 21.90L95.52 21.88Q99.79 21.85 101.23 22.04L101.26 22.06L101.15 21.96Q105.04 22.54 105.50 24.55L105.50 24.55L105.51 24.57Q105.62 25.17 105.62 25.55L105.58 25.51L105.63 25.56Q105.63 26.25 105.44 26.86L105.40 26.82L105.46 26.88Q104.95 31.20 102.02 32.72L101.88 32.59L101.86 32.56Q105.49 33.49 105.99 38.79L105.98 38.78L105.93 38.73Q105.87 38.82 105.91 40.11L105.99 40.19L106.04 40.25Q106.09 42.96 104.49 44.03L104.42 43.96L104.42 43.95Q103.13 44.91 98.56 45.36ZM100.80 47.64L100.69 47.54L104.14 47.71L104.15 47.72Q105.91 47.84 107.43 47.12L107.44 47.13L107.29 46.98Q108.49 46.31 108.57 44.45L108.65 44.53L108.62 44.50Q108.66 43.39 108.28 41.45L108.30 41.48L108.34 41.52Q107.30 36.75 105.21 34.88L105.15 34.82L104.99 34.48L104.91 34.32L104.71 34.01L104.73 34.02Q106.41 32.69 107.32 28.54L107.30 28.52L107.29 28.52Q107.27 28.11 107.34 27.27L107.31 27.24L107.35 27.28Q107.38 26.55 107.30 25.94L107.34 25.97L107.24 25.88Q107.10 24.44 105.92 23.94L106.10 24.12L106.08 24.07L105.80 23.86L105.88 23.95Q105.62 23.23 104.44 22.43L104.39 22.38L104.48 22.43L104.35 22.30Q102.43 21.67 98.36 21.48L98.41 21.54L98.30 21.42Q96.87 21.45 95.50 21.56L95.50 21.56L95.45 21.51Q94.59 21.49 93.30 21.64L93.43 21.77L93.36 21.71Q91.46 22.13 91.23 23.76L91.19 23.72L91.11 23.64Q91.22 24.28 91.26 25.08L91.13 24.95L91.23 25.05Q91.21 25.46 91.78 27.82L91.96 28.00L91.78 27.81Q92.63 31.10 94.38 32.43L94.35 32.40L94.53 32.58L94.49 32.54Q91.73 33.85 91.20 39.03L91.25 39.09L91.19 39.02Q91.03 41.26 91.03 42.18L91.05 42.20L90.91 42.05Q91.05 43.91 92.23 44.82L92.31 44.90L92.19 44.79Q92.27 44.83 92.54 45.02L92.62 45.10L92.70 45.18Q93.65 47.38 100.77 47.61ZM100.35 36.45L100.50 36.61L100.54 36.64Q101.29 36.41 102.17 36.87L102.28 36.98L102.31 37.01Q102.57 37.88 102.53 38.41L102.57 38.46L102.57 38.45Q102.65 38.80 102.65 39.10L102.52 38.97L102.64 39.10Q102.55 41.36 100.27 42.20L100.30 42.24L100.41 42.34Q99.49 42.52 98.69 42.41L98.75 42.47L98.70 42.42Q97.56 42.50 96.42 42.04L96.52 42.14L96.50 42.13Q96.26 41.51 96.34 40.52L96.23 40.41L96.30 40.48Q96.44 38.87 97.64 37.65L97.62 37.63L97.65 37.66Q98.83 36.43 100.43 36.54ZM100.76 27.16L100.68 27.08L100.61 27.01Q101.39 26.88 101.93 27.03L101.96 27.06L102.08 27.99L102.02 27.92Q101.90 29.22 100.99 30.23L101.02 30.26L101.18 30.42Q100.18 31.34 98.81 31.15L98.89 31.23L98.74 31.08Q97.74 31.07 97.32 30.84L97.31 30.83L97.43 30.95Q97.37 30.66 97.26 29.98L97.32 30.04L97.23 29.95Q97.03 28.61 98.25 27.77L98.09 27.62L98.22 27.75Q99.23 27.00 100.64 27.04Z"/><path fill="#df2eb3" d="M141.42 43.90L141.45 43.92L141.52 44.00Q143.40 41.61 148.16 34.34L148.11 34.30L148.09 34.27Q152.09 28.04 154.95 24.76L155.05 24.87L155.10 24.92Q152.99 25.20 150.90 25.20L150.91 25.22L150.85 25.16Q145.52 25.08 141.52 23.29L141.60 23.37L141.59 23.36Q140.88 21.39 140.20 19.83L140.24 19.88L140.30 19.93Q144.68 21.92 150.35 22.03L150.53 22.21L150.53 22.21Q155.67 22.29 160.85 20.39L160.77 20.30L160.71 20.25Q160.36 21.11 160.05 21.91L160.14 22.00L159.47 23.50L159.54 23.57Q156.42 27.14 152.42 32.97L152.50 33.05L149.18 37.88L149.03 37.72Q147.41 40.22 145.58 42.50L145.63 42.55L145.70 42.62Q148.87 41.87 152.18 41.94L152.28 42.05L152.16 41.92Q155.52 42.05 158.68 42.96L158.70 42.98L159.16 44.54L159.16 44.54Q159.40 45.35 159.74 46.19L159.88 46.33L159.89 46.34Q155.20 44.73 150.06 44.92L149.91 44.78L149.90 44.76Q144.95 45.15 140.46 47.17L140.46 47.17L140.47 47.17Q140.87 46.12 141.59 44.07ZM139.71 47.71L139.87 47.87L139.82 47.82Q141.08 47.25 141.88 46.98L141.80 46.90L141.80 46.91Q141.59 47.73 140.91 49.25L140.91 49.25L140.92 49.26Q146.64 47.14 152.61 47.37L152.48 47.23L152.56 47.31Q158.94 47.60 163.97 50.38L163.78 50.19L163.93 50.34Q162.49 47.92 161.69 45.75L161.62 45.67L161.76 45.81Q161.11 45.42 159.58 44.85L159.75 45.02L159.61 44.88Q159.53 44.23 159.11 42.74L158.99 42.62L158.99 42.62Q154.93 41.53 149.83 41.72L149.85 41.75L149.74 41.64Q151.86 38.89 155.40 33.33L155.48 33.40L155.51 33.44Q159.06 27.62 160.96 25.07L160.96 25.06L160.97 25.07Q161.49 23.69 162.52 20.99L162.49 20.96L162.52 20.99Q161.85 21.35 160.40 21.96L160.44 21.99L160.33 21.88Q160.74 21.16 161.47 19.63L161.43 19.60L161.53 19.69Q156.09 21.72 150.38 21.64L150.37 21.63L150.34 21.61Q144.47 21.59 139.52 19.08L139.45 19.01L139.47 19.03Q140.64 21.42 141.36 23.67L141.34 23.64L141.28 23.58Q142.49 24.22 143.29 24.45L143.34 24.50L143.34 24.50Q143.59 25.17 143.86 26.61L143.78 26.54L143.78 26.54Q147.49 27.59 152.37 27.40L152.35 27.38L152.36 27.39Q149.97 30.60 146.66 35.59L146.69 35.61L141.21 43.99L141.19 43.98Q140.80 45.22 139.77 47.77Z"/><path fill="#e6bd41" d="M47.16 32.57L47.13 32.54L47.23 32.64Q44.92 32.57 43.64 34.07L43.67 34.10L43.68 34.11Q42.44 35.65 42.33 37.93L42.43 38.03L42.40 38.01Q42.17 40.56 43.01 41.51L43.03 41.53L43.05 41.55Q44.15 42.80 46.47 42.65L46.59 42.77L46.41 42.59Q51.20 42.43 51.58 39.42L51.46 39.30L51.43 39.27Q51.64 38.56 51.64 37.77L51.52 37.65L51.66 37.79Q51.47 35.61 50.32 34.09L50.39 34.16L50.47 34.24Q49.20 32.63 47.26 32.67ZM51.96 42.62L52.01 42.67L52.01 42.67Q50.51 44.79 46.14 45.02L46.32 45.21L46.27 45.16Q42.06 45.28 40.42 44.18L40.33 44.08L40.44 44.19Q39.38 43.18 39.23 41.46L39.30 41.54L39.27 41.51Q39.22 40.39 39.41 38.52L39.46 38.57L39.55 38.66Q39.86 34.17 41.07 32.34L41.13 32.40L41.27 32.53Q42.83 29.99 46.67 30.02L46.68 30.03L46.59 29.94Q49.25 30.12 51.53 32.45L51.52 32.43L51.42 32.33Q51.56 26.53 53.16 20.02L53.12 19.98L53.15 20.01Q55.00 19.55 56.87 18.71L56.93 18.77L56.93 18.77Q54.38 25.43 54.11 32.44L53.95 32.28L54.12 32.45Q53.73 39.52 55.86 46.10L55.91 46.15L55.83 46.07Q54.19 45.46 52.48 45.08L52.65 45.25L52.49 45.09Q52.12 43.73 51.97 42.63ZM55.12 48.21L55.15 48.25L55.08 48.17Q57.10 48.68 59.66 50.20L59.70 50.25L59.74 50.28Q56.12 43.31 55.96 35.01L55.79 34.84L55.92 34.97Q55.72 26.70 58.81 19.31L58.91 19.41L58.84 19.35Q58.13 19.78 56.68 20.43L56.66 20.40L56.63 20.37Q57.13 19.39 57.74 18.18L57.57 18.00L57.71 18.14Q55.21 19.10 52.77 19.67L52.82 19.72L52.85 19.75Q51.41 25.54 51.14 31.63L51.17 31.66L51.20 31.69Q49.07 29.64 46.56 29.53L46.67 29.64L46.74 29.71Q43.31 29.59 41.41 31.68L41.32 31.60L41.30 31.58Q39.60 33.95 39.18 38.63L39.25 38.71L39.14 38.59Q38.85 41.31 38.85 41.73L38.84 41.72L39.02 41.90Q38.91 43.46 40.05 44.53L40.10 44.58L40.05 44.53Q40.41 44.89 40.60 44.97L40.64 45.00L40.96 45.52L41.07 45.62Q42.05 46.99 45.02 47.25L45.07 47.30L45.01 47.25Q47.20 47.37 48.57 47.45L48.50 47.38L48.56 47.44Q52.80 47.68 54.51 46.35L54.43 46.27L54.44 46.28Q54.60 47.01 55.06 48.16ZM48.81 34.90L48.88 34.97L48.88 34.97Q49.92 34.98 50.76 35.48L50.80 35.52L50.70 35.42Q51.16 36.68 51.24 37.71L51.34 37.81L51.28 37.75Q51.60 41.99 46.58 42.34L46.47 42.23L46.47 42.23Q45.61 42.28 44.50 42.01L44.60 42.11L44.48 41.99Q44.38 41.51 44.30 40.97L44.33 41.00L44.33 41.00Q44.15 40.21 44.19 39.60L44.18 39.60L44.25 39.67Q44.62 36.30 47.24 35.31L47.14 35.21L47.27 35.34Q48.23 34.96 48.91 35.00Z"/><path fill="#ed8d6d" d="M77.22 32.19L77.14 32.11L77.21 32.18Q77.95 32.12 79.36 31.97L79.48 32.09L79.33 31.94Q79.31 32.60 79.31 33.25L79.42 33.36L79.27 34.47L79.31 34.51Q78.52 34.55 77.68 34.63L77.73 34.68L77.71 34.66Q76.95 34.77 76.11 34.74L76.08 34.71L75.93 34.55Q73.24 40.88 69.81 45.49L69.71 45.39L69.74 45.42Q67.19 46.03 65.90 46.64L65.83 46.58L65.96 46.70Q70.00 40.92 73.05 34.64L73.06 34.66L70.38 34.60L70.46 34.69Q70.43 33.32 70.32 31.99L70.44 32.11L70.41 32.08Q72.28 32.20 74.34 32.20L74.32 32.18L76.24 28.51L76.25 28.52Q77.23 26.61 78.45 25.01L78.39 24.95L78.40 24.96Q76.81 25.08 75.21 25.08L75.22 25.09L75.19 25.06Q69.22 25.18 65.45 22.98L65.41 22.93L64.78 21.24L64.84 21.29Q64.42 20.38 64.04 19.50L64.11 19.57L64.04 19.50Q68.34 22.09 74.05 22.32L73.99 22.26L74.10 22.37Q79.25 22.61 84.39 20.63L84.33 20.57L84.32 20.56Q84.07 20.92 83.58 21.80L83.75 21.97L83.59 21.81Q80.05 26.65 77.19 32.17ZM85.18 23.17L85.17 23.16L86.33 21.32L86.32 21.31Q85.22 21.65 83.54 22.37L83.66 22.49L83.85 22.18L83.90 22.24Q84.03 22.09 84.14 21.98L84.03 21.87L84.02 21.86Q84.43 21.21 85.16 19.88L85.19 19.91L85.06 19.77Q79.73 22.06 73.98 21.83L74.17 22.03L74.15 22.00Q68.00 21.60 63.24 18.63L63.33 18.72L63.30 18.69Q64.29 20.52 65.13 23.18L65.17 23.23L65.21 23.27Q66.26 23.86 67.06 24.16L67.15 24.25L66.99 24.09Q67.21 24.50 67.67 26.37L67.62 26.32L67.66 26.36Q70.78 27.58 76.30 27.43L76.46 27.58L76.28 27.40Q76.07 28.07 74.09 31.84L74.15 31.90L74.16 31.91Q72.07 31.88 70.09 31.69L70.00 31.59L70.08 31.67Q70.21 32.57 70.21 33.45L70.09 33.32L70.04 34.99L71.75 35.02L71.71 36.39L71.70 36.38Q67.94 43.92 65.16 47.50L65.04 47.38L65.13 47.47Q66.73 46.71 68.37 46.22L68.26 46.11L68.29 46.14Q67.64 47.08 66.26 48.80L66.37 48.90L66.34 48.87Q69.35 47.62 71.78 47.39L71.89 47.50L71.96 47.56Q74.73 43.64 77.85 36.86L77.89 36.89L81.28 37.05L81.28 37.05Q81.24 36.18 81.24 35.26L81.28 35.30L81.32 33.55L81.32 33.55Q80.97 33.47 80.42 33.51L80.36 33.44L80.52 33.61Q79.93 33.61 79.67 33.61L79.71 33.65L79.62 33.56Q79.67 33.50 79.71 33.35L79.69 33.33L79.63 33.00L79.66 33.03Q82.09 27.81 85.17 23.16Z"/><path fill="#e73abc" d="M133.16 28.35L133.07 28.25L133.06 28.25Q131.39 24.21 125.18 24.40L125.20 24.42L125.11 24.33Q120.71 24.46 118.73 25.91L118.78 25.96L118.81 25.99Q116.47 27.80 116.47 31.91L116.46 31.90L116.45 33.75L116.36 33.66Q116.39 42.53 125.41 42.53L125.37 42.48L125.37 42.49Q127.47 42.52 128.95 41.72L128.88 41.65L128.95 41.73Q130.78 40.70 130.63 38.83L130.59 38.79L130.71 38.92Q130.39 36.70 126.70 35.78L126.75 35.83L124.82 35.84L124.89 35.91Q123.75 35.73 122.80 35.76L122.87 35.83L122.92 35.88Q122.85 34.86 122.81 32.96L122.94 33.09L122.87 33.01Q130.57 33.06 134.75 32.72L134.64 32.61L134.64 32.60Q134.69 33.54 134.69 34.33L134.71 34.35L134.69 34.33Q134.60 35.04 134.64 35.84L134.67 35.87L134.80 36.00Q133.53 35.84 133.53 35.84L133.66 35.97L133.59 35.89Q132.24 35.91 132.62 35.91L132.65 35.95L132.54 35.83Q133.76 37.58 134.14 39.56L134.12 39.55L134.04 39.47Q134.21 40.25 134.21 40.71L134.17 40.67L134.19 40.68Q134.23 45.37 125.44 45.37L125.29 45.22L125.37 45.30Q118.27 45.32 115.68 43.23L115.67 43.21L115.59 43.13Q113.76 40.92 113.76 35.86L113.70 35.80L113.66 35.76Q113.63 34.66 113.48 31.96L113.45 31.94L113.46 31.94Q113.42 29.70 113.46 28.33L113.36 28.23L113.34 28.21Q113.49 25.39 114.86 23.79L114.99 23.92L114.87 23.80Q117.51 21.83 122.38 21.64L122.41 21.67L125.04 21.55L124.90 21.42Q128.07 21.39 131.49 21.80L131.51 21.82L131.41 21.73Q135.29 22.33 136.24 25.56L136.22 25.54L136.23 25.55Q135.11 26.38 133.02 28.20ZM134.54 30.53L134.61 30.48L134.59 30.47Q135.81 29.39 137.67 27.41L137.71 27.45L137.71 27.45Q137.43 26.52 136.44 24.81L136.32 24.69L136.31 24.68Q135.11 22.00 131.30 21.35L131.29 21.34L131.37 21.41Q129.35 21.41 125.04 21.11L124.94 21.01L122.26 21.14L122.23 21.11Q117.19 21.43 114.60 23.41L114.61 23.43L114.43 23.24Q113.06 24.89 112.95 27.97L112.98 28.00L113.12 28.14Q113.00 27.56 113.23 33.04L113.36 33.18L113.40 33.21Q113.21 34.36 113.29 37.10L113.40 37.21L113.39 37.20Q113.61 41.68 115.36 43.63L115.26 43.52L115.30 43.56Q115.67 44.40 116.55 45.27L116.54 45.26L116.65 45.38Q119.53 47.23 125.05 47.57L125.01 47.53L127.82 47.64L127.94 47.76Q129.58 47.92 131.60 47.80L131.43 47.63L131.48 47.68Q133.00 47.68 135.09 47.15L135.09 47.14L135.08 47.14Q137.00 46.61 136.96 44.29L137.02 44.35L136.97 44.30Q137.04 43.12 135.98 40.34L135.83 40.20L135.81 40.17Q135.59 39.34 135.06 38.54L134.96 38.45L135.10 38.59Q135.71 38.63 136.89 38.82L136.83 38.76L136.86 38.79Q136.43 35.05 136.47 34.36L136.61 34.50L136.65 34.54Q136.25 34.52 135.83 34.48L135.76 34.41L135.79 34.44Q135.31 34.30 134.93 34.38L134.98 34.43L135.03 34.48Q134.92 33.26 134.99 32.20L135.07 32.27L135.05 32.26Q128.78 32.76 122.50 32.65L122.51 32.66L122.43 32.57Q122.48 33.50 122.48 34.41L122.64 34.58L122.55 36.24L122.63 36.32Q122.93 36.23 123.35 36.20L123.36 36.21L123.41 36.26Q123.80 36.23 124.26 36.23L124.25 36.23L124.20 36.18Q124.20 36.63 124.24 37.12L124.28 37.17L124.25 37.14Q124.30 37.65 124.26 38.14L124.24 38.12L124.30 38.18Q125.20 38.01 126.23 37.97L126.25 38.00L126.25 37.99Q127.37 38.09 128.40 38.13L128.33 38.06L128.33 38.05Q129.39 38.32 130.27 38.70L130.27 38.71L130.23 38.71L130.25 38.73Q130.49 40.33 128.81 41.24L128.75 41.18L128.89 41.32Q127.11 42.13 125.40 42.13L125.50 42.23L125.49 42.23Q121.57 42.15 119.14 40.40L119.07 40.33L119.04 40.31Q118.16 38.36 118.31 35.81L118.28 35.78L118.30 35.80Q118.62 31.02 120.47 29.02L120.58 29.13L120.51 29.06Q122.34 27.04 127.02 26.74L126.97 26.69L127.06 26.78Q130.60 26.43 132.54 28.22L132.58 28.26L132.66 28.34Q132.61 28.33 132.72 28.52L132.70 28.50L132.96 28.64L133.00 28.68Q133.62 29.41 134.19 30.52L134.15 30.48L134.48 30.46Z"/></svg>